<svg xmlns="http://www.w3.org/2000/svg" width="20.842" height="20.842" viewBox="0 0 20.842 20.842">
  <g id="email" transform="translate(-0.001 -0.004)">
    <g id="Group_60" data-name="Group 60" transform="translate(0.001 0.004)">
      <g id="Group_59" data-name="Group 59" transform="translate(0 0)">
        <path id="Path_12" data-name="Path 12" d="M20.839,7.972a.328.328,0,0,0-.014-.071.347.347,0,0,0-.02-.06.312.312,0,0,0-.035-.053.327.327,0,0,0-.046-.054c-.006,0-.008-.011-.014-.016L17.369,5.124V2.435a1.042,1.042,0,0,0-1.042-1.042H12.562L11.055.222a1.03,1.03,0,0,0-1.267,0L8.281,1.393H4.516A1.042,1.042,0,0,0,3.474,2.435V5.124L.134,7.719c-.006,0-.008.011-.014.016a.326.326,0,0,0-.046.054.31.31,0,0,0-.035.053.343.343,0,0,0-.02.06.329.329,0,0,0-.014.069c0,.007,0,.014,0,.021V19.8a1.03,1.03,0,0,0,.2.613s0,.007,0,.01l.011.01a1.037,1.037,0,0,0,.821.41H19.8a1.037,1.037,0,0,0,.824-.411s.007,0,.009-.008,0-.007,0-.01a1.031,1.031,0,0,0,.2-.613V7.993C20.843,7.986,20.839,7.979,20.839,7.972ZM10.213.77a.333.333,0,0,1,.414,0l.8.622H9.414ZM1.13,20.151,10.213,13.1a.334.334,0,0,1,.414,0l9.086,7.056Zm19.019-.542-9.093-7.062a1.031,1.031,0,0,0-1.267,0L.695,19.61V8.522l5.693,4.42a.348.348,0,0,0,.426-.549L1.03,7.9,3.474,6V8.688a.347.347,0,1,0,.695,0V2.435a.347.347,0,0,1,.347-.347H16.327a.347.347,0,0,1,.347.347V8.688a.347.347,0,1,0,.695,0V6l2.444,1.9L14.02,12.4a.347.347,0,1,0,.426.549l5.7-4.428V19.61Z" transform="translate(-0.001 -0.004)" fill="#fff"/>
        <path id="Path_13" data-name="Path 13" d="M161.911,73.8v-1.39a4.169,4.169,0,1,0-4.169,4.169.347.347,0,0,0,0-.695,3.474,3.474,0,1,1,3.474-3.474V73.8a.695.695,0,1,1-1.39,0v-1.39a.347.347,0,1,0-.695,0,1.39,1.39,0,1,1-1.39-1.39.347.347,0,0,0,0-.695,2.084,2.084,0,1,0,1.4,3.62,1.386,1.386,0,0,0,2.764-.146Z" transform="translate(-147.322 -65.459)" fill="#fff"/>
      </g>
    </g>
  </g>
</svg>
