<svg xmlns="http://www.w3.org/2000/svg" width="60" height="60" viewBox="0 0 60 60">
  <g id="whatsapp" transform="translate(0 0)">
    <path id="Path_6" data-name="Path 6" d="M14.512,55.719a29.78,29.78,0,0,0,15.382,4.26A30.154,30.154,0,0,0,60,29.99a29.989,29.989,0,1,0-55.719,15.5L0,60ZM3.537,29.99a26.348,26.348,0,1,1,12.18,22.341l-.676-.432L5.2,54.8,8.1,44.96l-.432-.675a26.471,26.471,0,0,1-4.134-14.3Zm0,0" fill="#fff"/>
    <path id="Path_7" data-name="Path 7" d="M121.547,106.57a27.078,27.078,0,0,0,21.717,21.717c3.568.679,8.8.782,11.362-1.777l1.426-1.426a3.813,3.813,0,0,0,0-5.392l-5.7-5.7a3.813,3.813,0,0,0-5.392,0l-1.426,1.426a2.537,2.537,0,0,1-3.393.011l-5.69-5.929-.026-.026a2.241,2.241,0,0,1,0-3.165l1.426-1.426a3.81,3.81,0,0,0,0-5.392l-5.7-5.7a3.817,3.817,0,0,0-5.392,0l-1.426,1.426h0c-2.042,2.043-2.723,6.4-1.777,11.363Zm4.317-8.823c1.5-1.463,1.417-1.491,1.582-1.491a.22.22,0,0,1,.156.065c6.011,6.043,5.77,5.688,5.77,5.861a.216.216,0,0,1-.065.156l-1.426,1.426a5.827,5.827,0,0,0-.015,8.23l5.693,5.932.026.026a6.126,6.126,0,0,0,8.484,0l1.426-1.426a.221.221,0,0,1,.313,0c6.011,6.043,5.77,5.688,5.77,5.861a.215.215,0,0,1-.065.156l-1.426,1.426c-.977.977-4.09,1.562-8.151.789a23.487,23.487,0,0,1-18.86-18.861c-.774-4.061-.189-7.174.788-8.151Zm0,0" transform="translate(-107.378 -82.147)" fill="#fff"/>
  </g>
</svg>
