<svg xmlns="http://www.w3.org/2000/svg" width="20" height="19.999" viewBox="0 0 20 19.999">
  <g id="call" transform="translate(-1 -1.018)">
    <g id="Group_58" data-name="Group 58" transform="translate(1 1.018)">
      <g id="Group_57" data-name="Group 57">
        <path id="Path_8" data-name="Path 8" d="M20.476,16.446l-4.048-2.7A1.182,1.182,0,0,0,14.845,14L13.666,15.52a.5.5,0,0,1-.646.136l-.224-.124a13.555,13.555,0,0,1-3.533-2.775A13.611,13.611,0,0,1,6.488,9.225L6.365,9A.5.5,0,0,1,6.5,8.352L8.013,7.173a1.182,1.182,0,0,0,.257-1.582l-2.7-4.048a1.175,1.175,0,0,0-1.584-.357L2.294,2.2A2.388,2.388,0,0,0,1.205,3.616C.6,5.837,1.054,9.67,6.7,15.317c4.492,4.491,7.836,5.7,10.134,5.7a5.9,5.9,0,0,0,1.566-.2,2.386,2.386,0,0,0,1.413-1.089l1.018-1.692A1.176,1.176,0,0,0,20.476,16.446Zm-.218,1.243-1.016,1.693a1.723,1.723,0,0,1-1.017.788c-2.05.563-5.632.1-11.053-5.324s-5.887-9-5.324-11.053a1.725,1.725,0,0,1,.789-1.018L4.33,1.759a.51.51,0,0,1,.688.155l1.466,2.2L7.714,5.961a.513.513,0,0,1-.111.687L6.088,7.827a1.166,1.166,0,0,0-.309,1.5l.12.219a14.139,14.139,0,0,0,2.889,3.686,14.154,14.154,0,0,0,3.686,2.889l.219.121a1.167,1.167,0,0,0,1.5-.309l1.179-1.515a.513.513,0,0,1,.687-.111L20.1,17A.51.51,0,0,1,20.258,17.689Z" transform="translate(-1 -1.018)" fill="#fff"/>
        <path id="Path_9" data-name="Path 9" d="M282.964,70a5.723,5.723,0,0,1,5.717,5.717.336.336,0,1,0,.673,0,6.4,6.4,0,0,0-6.389-6.389.336.336,0,1,0,0,.673Z" transform="translate(-271.71 -66.632)" fill="#fff"/>
        <path id="Path_10" data-name="Path 10" d="M282.964,121.2a3.7,3.7,0,0,1,3.7,3.7.336.336,0,1,0,.673,0,4.377,4.377,0,0,0-4.372-4.372.336.336,0,1,0,0,.673Z" transform="translate(-271.659 -115.869)" fill="#fff"/>
        <path id="Path_11" data-name="Path 11" d="M282.964,172.4a1.683,1.683,0,0,1,1.681,1.681.336.336,0,1,0,.673,0,2.357,2.357,0,0,0-2.354-2.354.336.336,0,0,0,0,.673Z" transform="translate(-271.644 -165.066)" fill="#fff"/>
      </g>
    </g>
  </g>
</svg>
