<svg xmlns="http://www.w3.org/2000/svg" width="60" height="60" viewBox="0 0 60 60">
  <g id="linkedin" transform="translate(0)">
    <path id="Path_2" data-name="Path 2" d="M51.211,0H8.789A8.8,8.8,0,0,0,0,8.789V51.211A8.8,8.8,0,0,0,8.789,60H51.211A8.8,8.8,0,0,0,60,51.211V8.789A8.8,8.8,0,0,0,51.211,0Zm5.273,51.211a5.28,5.28,0,0,1-5.273,5.273H8.789a5.28,5.28,0,0,1-5.273-5.273V8.789A5.279,5.279,0,0,1,8.789,3.516H51.211a5.28,5.28,0,0,1,5.273,5.273Zm0,0" fill="#fff"/>
    <path id="Path_3" data-name="Path 3" d="M91,235.391h10.779V210H91Zm3.593-21.8h3.593V231.8H94.593Zm0,0" transform="translate(-80.386 -185.774)" fill="#fff"/>
    <path id="Path_4" data-name="Path 4" d="M225.383,210h-.01a10.759,10.759,0,0,0-3.593.611V210H211v25.391h10.779V222.575a1.8,1.8,0,1,1,3.593,0v12.815h10.779V221.34c0-5.814-4.717-11.335-10.769-11.341Zm7.176,21.8h-3.593v-9.222a5.39,5.39,0,0,0-10.779,0V231.8h-3.593V213.593h3.593v3.6l2.875-2.16a7.122,7.122,0,0,1,4.311-1.436h.007c3.824,0,7.179,3.624,7.179,7.748Zm0,0" transform="translate(-186.652 -185.773)" fill="#fff"/>
    <path id="Path_5" data-name="Path 5" d="M91,100.779h10.779V90H91Zm3.593-7.186h3.593v3.593H94.593Zm0,0" transform="translate(-80.386 -79.503)" fill="#fff"/>
  </g>
</svg>
