<svg id="reunion" xmlns="http://www.w3.org/2000/svg" width="306" height="306" viewBox="0 0 306 306">
  <circle id="Ellipse_15" data-name="Ellipse 15" cx="153" cy="153" r="153" fill="#90dfaa"/>
  <circle id="Ellipse_16" data-name="Ellipse 16" cx="110.835" cy="110.835" r="110.835" transform="translate(42.165 42.165)" fill="#2c9984"/>
  <g id="Group_143" data-name="Group 143" transform="translate(86.258 115.172)">
    <path id="Path_110" data-name="Path 110" d="M168.017,205.416c1.928-4.819,1.2-9.4-1.2-10.361a2.639,2.639,0,0,0-1.928,0,13.647,13.647,0,0,1-8.192-.482l-8.915-3.373L143.2,203.006l8.915,3.373a12.39,12.39,0,0,1,6.506,5.06,2.468,2.468,0,0,0,1.446,1.2C162.717,213.367,166.09,210.235,168.017,205.416Z" transform="translate(-143.2 -191.2)" fill="#fff"/>
    <path id="Path_111" data-name="Path 111" d="M168.176,287.672c-1.928-4.819-5.3-7.951-7.71-6.987a6.388,6.388,0,0,0-1.446,1.2c-1.446,2.409-3.855,3.855-6.506,5.06l-8.915,3.373,4.337,11.806,8.915-3.373a12.025,12.025,0,0,1,8.192-.482,2.661,2.661,0,0,0,1.928,0C169.381,297.069,170.1,292.491,168.176,287.672Z" transform="translate(-143.359 -226.713)" fill="#fff"/>
  </g>
  <rect id="Rectangle_44" data-name="Rectangle 44" width="29.636" height="55.899" transform="translate(20.721 123.605)" fill="#f9b54c"/>
  <g id="Group_144" data-name="Group 144" transform="translate(30.359 104.735)">
    <path id="Path_112" data-name="Path 112" d="M123.165,185.515,115.7,204.309h-.241l-2.169-.723s-25.54-10.12-25.781-10.12c-.964,0-5.783-2.409-5.783,4.1,0,0-.723,13.011-1.2,18.312H50.4c.964-9.156,6.265-34.937,29.154-41.2a27.457,27.457,0,0,1,10.843-.482c.964.241,30.118,10.12,30.118,10.12A28.271,28.271,0,0,1,123.165,185.515Z" transform="translate(-50.4 -173.874)" fill="#2b3b4e"/>
    <path id="Path_113" data-name="Path 113" d="M120.756,295.564h0s-29.154,10.12-30.118,10.12A27.457,27.457,0,0,1,79.8,305.2c-23.131-6.265-28.431-32.046-29.4-41.2H80.759c.241,5.3,1.2,18.312,1.2,18.312,0,6.505,4.819,4.1,5.783,4.1.241,0,23.372-9.156,25.54-9.879Z" transform="translate(-50.4 -209.712)" fill="#2b3b4e"/>
  </g>
  <path id="Path_114" data-name="Path 114" d="M39.233,203.233v51.321a8.537,8.537,0,0,1-8.433,8.433h0V194.8h0A8.537,8.537,0,0,1,39.233,203.233Z" transform="translate(-12.247 -77.46)" fill="#ffd05b"/>
  <path id="Path_115" data-name="Path 115" d="M82.079,247.737,61.839,259.543,41.6,247.737V224.365L61.839,212.8l20.239,11.565Z" transform="translate(-16.542 -84.617)" fill="#324a5e"/>
  <g id="Group_145" data-name="Group 145" transform="translate(193.806 115.172)">
    <path id="Path_116" data-name="Path 116" d="M322.872,205.416c-1.928-4.819-1.2-9.4,1.2-10.361a2.64,2.64,0,0,1,1.928,0,13.647,13.647,0,0,0,8.192-.482l8.915-3.373,4.578,11.806-8.915,3.373a12.39,12.39,0,0,0-6.505,5.06,2.468,2.468,0,0,1-1.446,1.2C328.173,213.367,324.8,210.235,322.872,205.416Z" transform="translate(-321.754 -191.2)" fill="#fff"/>
    <path id="Path_117" data-name="Path 117" d="M322.862,287.672c1.928-4.819,5.3-7.951,7.71-6.987a6.388,6.388,0,0,1,1.446,1.2c1.446,2.409,3.855,3.855,6.505,5.06l8.915,3.373L343.1,302.129l-9.156-3.614a12.025,12.025,0,0,0-8.192-.482,2.661,2.661,0,0,1-1.928,0C321.657,297.069,320.934,292.491,322.862,287.672Z" transform="translate(-321.744 -226.713)" fill="#fff"/>
  </g>
  <rect id="Rectangle_45" data-name="Rectangle 45" width="29.636" height="55.899" transform="translate(255.643 123.605)" fill="#f9b54c"/>
  <g id="Group_146" data-name="Group 146" transform="translate(202.876 104.735)">
    <path id="Path_118" data-name="Path 118" d="M336.8,185.515l7.469,18.794h.241l2.168-.723s25.54-10.12,25.781-10.12c.964,0,5.783-2.409,5.783,4.1,0,0,.723,13.011,1.2,18.312h30.359c-.964-9.156-6.265-34.937-29.154-41.2a27.457,27.457,0,0,0-10.843-.482c-.964.241-30.118,10.12-30.118,10.12A17.483,17.483,0,0,0,336.8,185.515Z" transform="translate(-336.8 -173.874)" fill="#ff7058"/>
    <path id="Path_119" data-name="Path 119" d="M340.8,295.564h0s29.154,10.12,30.118,10.12a27.457,27.457,0,0,0,10.843-.482c23.131-6.505,28.191-32.287,29.154-41.2H380.556c-.241,5.3-1.2,18.312-1.2,18.312,0,6.505-4.819,4.1-5.783,4.1-.241,0-23.372-9.156-25.54-9.879Z" transform="translate(-338.391 -209.712)" fill="#ff7058"/>
  </g>
  <path id="Path_120" data-name="Path 120" d="M463.2,203.233v51.321a8.537,8.537,0,0,0,8.433,8.433h0V194.8h0A8.537,8.537,0,0,0,463.2,203.233Z" transform="translate(-184.186 -77.46)" fill="#ffd05b"/>
  <path id="Path_121" data-name="Path 121" d="M399.2,247.737l20.239,11.806,20.239-11.806V224.365L419.439,212.8,399.2,224.365Z" transform="translate(-158.737 -84.617)" fill="#324a5e"/>
  <g id="Group_147" data-name="Group 147" transform="translate(115.413 86.258)">
    <path id="Path_122" data-name="Path 122" d="M288.36,168.017c4.819,1.928,9.4,1.2,10.361-1.2a2.639,2.639,0,0,0,0-1.928,13.647,13.647,0,0,1,.482-8.192l3.373-8.915L290.769,143.2l-3.373,8.915a12.391,12.391,0,0,1-5.06,6.506,2.468,2.468,0,0,0-1.2,1.446C280.409,162.717,283.541,166.09,288.36,168.017Z" transform="translate(-227.16 -143.2)" fill="#fff"/>
    <path id="Path_123" data-name="Path 123" d="M206.057,168.176c4.819-1.928,7.951-5.3,6.987-7.71a6.388,6.388,0,0,0-1.2-1.446c-2.409-1.446-3.855-3.855-5.06-6.506l-3.373-8.915L191.6,147.937l3.373,8.915a12.026,12.026,0,0,1,.482,8.192,2.66,2.66,0,0,0,0,1.928C196.66,169.381,201.238,170.1,206.057,168.176Z" transform="translate(-191.6 -143.359)" fill="#fff"/>
  </g>
  <rect id="Rectangle_46" data-name="Rectangle 46" width="55.899" height="29.636" transform="translate(126.496 20.721)" fill="#f9b54c"/>
  <g id="Group_148" data-name="Group 148" transform="translate(104.976 30.359)">
    <path id="Path_124" data-name="Path 124" d="M294.759,123.165,275.965,115.7v-.241l.723-2.169s10.12-25.54,10.12-25.781c0-.964,2.409-5.783-4.1-5.783,0,0-13.011-.723-18.312-1.2V50.4c9.156.964,34.937,6.265,41.2,29.154a27.457,27.457,0,0,1,.482,10.843c-.241.964-10.12,30.118-10.12,30.118A28.259,28.259,0,0,1,294.759,123.165Z" transform="translate(-210.112 -50.4)" fill="#e6e9ee"/>
    <path id="Path_125" data-name="Path 125" d="M184.711,120.915h0s-10.12-29.154-10.12-30.118a27.457,27.457,0,0,1,.482-10.843c6.506-23.131,32.287-28.191,41.2-29.154V81.159c-5.3.241-18.312,1.2-18.312,1.2-6.506,0-4.1,4.819-4.1,5.783,0,.241,9.156,23.372,9.879,25.54Z" transform="translate(-174.275 -50.559)" fill="#e6e9ee"/>
  </g>
  <path id="Path_126" data-name="Path 126" d="M259.754,39.233H208.433A8.537,8.537,0,0,1,200,30.8h67.946A8.179,8.179,0,0,1,259.754,39.233Z" transform="translate(-79.528 -12.247)" fill="#ffd05b"/>
  <path id="Path_127" data-name="Path 127" d="M229.406,82.079,217.6,61.839,229.406,41.6h23.372l11.565,20.239L252.778,82.079Z" transform="translate(-86.526 -16.542)" fill="#324a5e"/>
  <g id="Group_149" data-name="Group 149" transform="translate(115.413 193.821)">
    <path id="Path_128" data-name="Path 128" d="M288.36,322.872c4.819-1.928,9.4-1.2,10.361,1.2a2.64,2.64,0,0,1,0,1.928,13.647,13.647,0,0,0,.482,8.192l3.373,8.915-11.806,4.578-3.373-8.915a12.39,12.39,0,0,0-5.06-6.505,2.468,2.468,0,0,1-1.2-1.446C280.409,328.173,283.541,324.8,288.36,322.872Z" transform="translate(-227.16 -321.769)" fill="#fff"/>
    <path id="Path_129" data-name="Path 129" d="M206.057,322.872c4.819,1.928,7.951,5.3,6.987,7.71a6.388,6.388,0,0,1-1.2,1.446c-2.409,1.446-3.855,3.855-5.06,6.505l-3.373,8.915L191.6,343.111l3.373-8.915a12.026,12.026,0,0,0,.482-8.192,2.66,2.66,0,0,1,0-1.928C196.66,321.667,201.238,320.944,206.057,322.872Z" transform="translate(-191.6 -321.769)" fill="#fff"/>
  </g>
  <rect id="Rectangle_47" data-name="Rectangle 47" width="55.899" height="29.636" transform="translate(126.496 255.643)" fill="#f9b54c"/>
  <g id="Group_150" data-name="Group 150" transform="translate(104.976 202.876)">
    <path id="Path_130" data-name="Path 130" d="M294.759,336.8l-18.794,7.469v.241l.723,2.168s10.12,25.54,10.12,25.781c0,.964,2.409,5.783-4.1,5.783,0,0-13.011.723-18.312,1.2v30.359c9.156-.964,34.937-6.265,41.2-29.154a27.457,27.457,0,0,0,.482-10.843c-.241-.964-10.12-30.118-10.12-30.118A17.479,17.479,0,0,0,294.759,336.8Z" transform="translate(-210.112 -336.8)" fill="#2b3b4e"/>
    <path id="Path_131" data-name="Path 131" d="M184.711,340.8h0s-10.12,29.154-10.12,30.118a27.457,27.457,0,0,0,.482,10.843c6.506,23.131,32.287,28.191,41.2,29.154V380.556c-5.3-.241-18.312-1.2-18.312-1.2-6.506,0-4.1-4.819-4.1-5.783,0-.241,9.156-23.372,9.879-25.54Z" transform="translate(-174.275 -338.391)" fill="#2b3b4e"/>
  </g>
  <path id="Path_132" data-name="Path 132" d="M259.754,463.2H208.433A8.537,8.537,0,0,0,200,471.633h67.946A8.179,8.179,0,0,0,259.754,463.2Z" transform="translate(-79.528 -184.186)" fill="#ffd05b"/>
  <path id="Path_133" data-name="Path 133" d="M229.406,399.2,217.6,419.439l11.806,20.239h23.372l11.565-20.239L252.778,399.2Z" transform="translate(-86.526 -158.737)" fill="#324a5e"/>
</svg>
