<svg xmlns="http://www.w3.org/2000/svg" width="60" height="60" viewBox="0 0 60 60">
  <path id="facebook" d="M8.789,60h19.57V38.672H21.328V31.641h7.031V22.852a8.8,8.8,0,0,1,8.789-8.789h8.789v7.031H38.906a3.519,3.519,0,0,0-3.516,3.516v7.031H45.62l-1.172,7.031H35.391V60h15.82A8.8,8.8,0,0,0,60,51.211V8.789A8.8,8.8,0,0,0,51.211,0H8.789A8.8,8.8,0,0,0,0,8.789V51.211A8.8,8.8,0,0,0,8.789,60ZM3.516,8.789A5.279,5.279,0,0,1,8.789,3.516H51.211a5.279,5.279,0,0,1,5.273,5.273V51.211a5.279,5.279,0,0,1-5.273,5.273h-12.3v-14.3h8.52L49.77,28.125H38.906V24.609H49.453V10.547h-12.3a12.318,12.318,0,0,0-12.3,12.3v5.273H17.813V42.188h7.031v14.3H8.789a5.279,5.279,0,0,1-5.273-5.273Zm0,0" fill="#fff"/>
</svg>
